inDegrees=no
num_controls=7
num_derivatives=13
num_iterations=98
num_multipliers=7
num_parameters=0
num_slacks=7
num_states=26
objective=0.408003
objective_accelerations=0.053539
objective_balance=0.006132
objective_effort=0.040017
objective_height=0.302611
objective_ligament=0.005703
solver_duration=1420.789996
status=Solve_Succeeded
success=true
DataType=double
version=3
OpenSimVersion=4.5
endheader
time	/jointset/ground_pelvis/pelvis_tilt/value	/jointset/ground_pelvis/pelvis_tx/value	/jointset/ground_pelvis/pelvis_ty/value	/jointset/hip_l/hip_flexion_l/value	/jointset/hip_l/hip_adduction_l/value	/jointset/hip_l/hip_rotation_l/value	/jointset/back/lumbar_extension/value	/jointset/patellofemoral_l/patellar_flexion_l/value	/jointset/knee_l/knee_flexion_l/value	/jointset/knee_l/knee_adduction_l/value	/jointset/knee_l/knee_rotation_l/value	/jointset/ankle_l/ankle_angle_l/value	/jointset/subtalar_l/subtalar_angle_l/value	/jointset/ground_pelvis/pelvis_tilt/speed	/jointset/ground_pelvis/pelvis_tx/speed	/jointset/ground_pelvis/pelvis_ty/speed	/jointset/hip_l/hip_flexion_l/speed	/jointset/hip_l/hip_adduction_l/speed	/jointset/hip_l/hip_rotation_l/speed	/jointset/back/lumbar_extension/speed	/jointset/patellofemoral_l/patellar_flexion_l/speed	/jointset/knee_l/knee_flexion_l/speed	/jointset/knee_l/knee_adduction_l/speed	/jointset/knee_l/knee_rotation_l/speed	/jointset/ankle_l/ankle_angle_l/speed	/jointset/subtalar_l/subtalar_angle_l/speed	/forceset/tau_hip_flexion_l	/forceset/tau_hip_adduction_l	/forceset/tau_hip_rotation_l	/forceset/tau_knee_flexion_l	/forceset/tau_ankle_angle_l	/forceset/tau_subtalar_angle_l	/forceset/tau_lumbar_extension	lambda_cid13_p0	lambda_cid13_p1	lambda_cid13_p2	lambda_cid13_p3	lambda_cid13_p4	lambda_cid13_p5	lambda_cid14_p0	/jointset/ground_pelvis/pelvis_tilt/accel	/jointset/ground_pelvis/pelvis_tx/accel	/jointset/ground_pelvis/pelvis_ty/accel	/jointset/hip_l/hip_flexion_l/accel	/jointset/hip_l/hip_adduction_l/accel	/jointset/hip_l/hip_rotation_l/accel	/jointset/back/lumbar_extension/accel	/jointset/patellofemoral_l/patellar_flexion_l/accel	/jointset/knee_l/knee_flexion_l/accel	/jointset/knee_l/knee_adduction_l/accel	/jointset/knee_l/knee_rotation_l/accel	/jointset/ankle_l/ankle_angle_l/accel	/jointset/subtalar_l/subtalar_angle_l/accel	gamma_cid13_p0	gamma_cid13_p1	gamma_cid13_p2	gamma_cid13_p3	gamma_cid13_p4	gamma_cid13_p5	gamma_cid14_p0
1	-0.2592616776017768	-0.01975826532562597	0.4176470496896039	2.09439498100701	-0.2391404278573392	0.0797295212147642	-0.436331572924162	2.017839795595728	2.017839795595744	0.1744875039873823	0.1745169582653724	0.4363321513201626	0.1415739627434631	-0.003376246574829958	0.002249740322598255	-0.006207974680892956	0.02000451731077979	-0.0014225445734334	-0.006602741777756761	0.0001255064570222235	0.0173888378266054	0.01738883782660738	0.009955887703203931	0.0001830765644305402	0.001218496392271604	-0.001734842541226883	-0.1777359663039862	-0.01148517098478102	-0.06810853729449201	-0.549395067864369	0.1273380684724232	0.01804546195061939	0.2009954018518684	-6.438671092253237	3.355134966023396	-12.43387233687235	6.950873346203416	-733.6459883082256	-64.65083162092272	-0.02659108509876922	-2.051909220714877	-0.5706974196218124	1.941196935347602	-3.939492001736405	-0.01108452340424712	-0.7687810940296543	0.07111652783326212	-6.171399841851324	-6.171399841851212	-1.005386885910627	-0.04578832302452974	-0.4373142998858109	-0.1742265728864677	-4.935843353879596e-09	1.568317829424807e-08	2.307499329889384e-08	-3.484046111149676e-09	4.562385352874131e-09	7.409994077687072e-08	-6.714210062178059e-09
1.01	-0.2593963133358235	-0.01976460158107456	0.4176828986552921	2.094394158538561	-0.2391547245523763	0.07962907790269466	-0.4363280657572886	2.017703024900811	2.017703024900991	0.1745327970688734	0.1745168917679178	0.4363226115097285	0.1415486821703326	-0.02345317630374269	-0.003550052178593672	0.01345418891308599	-0.02043799451290298	-0.00143871488871308	-0.01351883998276149	0.0005255340080726407	-0.04495008053553268	-0.04495008053554458	-0.0009264177746891356	-0.0001888973613620975	-0.003172216603586741	-0.003343566545099995	-0.1804872451359179	-0.01105058284043006	-0.06813352271002561	-0.5496673471388094	0.1243999341994593	0.01814912139806867	0.203043944659194	-7.570741908084142	3.505172422460519	-12.45418202220131	8.501600179679123	-735.9533121282254	-64.59232094790052	-0.02660987230091717	-1.970922766834885	-0.5895676785394849	1.99018978645557	-4.136975396354107	0.002837359746886347	-0.6579560292090811	0.0168869294256496	-6.296206983815986	-6.296206983818097	-1.134010819937354	-0.03175894360442232	-0.4468173058913494	-0.1575248434652818	-1.095343760094022e-08	-4.706257666372579e-08	-5.595245628907715e-08	5.739246062805655e-08	2.773191164663873e-09	-2.541065653888308e-07	1.771382045683254e-08
1.02	-0.2597287859507297	-0.01982992526416942	0.417917661999926	2.093980842026625	-0.2391692388214992	0.07945848723947986	-0.4363220701027182	2.01693665119219	2.016936651192538	0.1744683954075743	0.174513334127961	0.4362677910677092	0.1415066484512978	-0.0429436227468814	-0.009547745206656825	0.0335749011082926	-0.06249429128338627	-0.001466059390520719	-0.02063221200670007	0.0006232039864907358	-0.1085317649145086	-0.1085317649145329	-0.01198306090093236	-0.000515151937065079	-0.00783762985766092	-0.005085471722075399	-0.1832385239678912	-0.01061599469610291	-0.06815850812543355	-0.5499396264132571	0.1214617999264979	0.01825278084547683	0.2050924874664787	-8.702637093612134	3.653057505202196	-12.47172550837617	10.10773811608808	-738.2226021292491	-64.5366755025624	-0.02668891369325644	-1.934612563560426	-0.6102775249959528	2.032906655593072	-4.262248991096165	-0.01331936070986033	-0.8082358578164365	0.01064501330603976	-6.419953045218698	-6.419953045218287	-1.040254415580596	-0.03664445300660997	-0.4922543515287557	-0.2008628075068616	6.816542329625353e-09	-1.158783584737095e-07	-1.474608192803893e-07	4.197423251446681e-08	-1.876574080647831e-08	-5.819739100372147e-07	3.894657186025734e-08
1.03	-0.2602524082895335	-0.01995599806965264	0.4183558997782033	2.093138312648337	-0.2391840895005936	0.07921617551572564	-0.4363161340825014	2.015528746084471	2.015528746084699	0.174292348839121	0.174506785034348	0.4361652441701803	0.1414466484671158	-0.06159428115731481	-0.01567767660785997	0.05414733405456691	-0.1063448552431733	-0.00151005325760849	-0.0278365271614524	0.0005541146691827824	-0.173206285300723	-0.173206285300766	-0.02326623544201861	-0.0007807592603003699	-0.0126882009941791	-0.006930554434086317	-0.1874077174996829	-0.01020780535850317	-0.06800431014851699	-0.5490847497427632	0.1173518782812643	0.01848214876629235	0.2082544787699267	-10.19711335251231	3.773619596742394	-12.44354852714758	11.76111595224299	-740.5675752436883	-64.42568142881343	-0.02676325281671186	-1.802297637220927	-0.6159749980089092	2.08060530724603	-4.496441522626248	-0.0008014639116516913	-0.6774704161638955	-0.01716871430713047	-6.514767993816475	-6.514767993819448	-1.17829947285084	-0.01934920527916677	-0.4839292161545783	-0.1786773445473018	2.482925260894235e-08	-1.847560793332036e-07	-2.390965385309192e-07	2.577748669829708e-08	-4.050620071418113e-08	-9.098377938537895e-07	6.014671837474757e-08
